{
  "accessors": [
    {
      "name": "Beanie_Cylinder.001-Mesh_0_positions",
      "componentType": 5126,
      "count": 304,
      "min": [
        -1.0582339763641357,
        -0.26824501156806946,
        -1
      ],
      "max": [
        1.0581409931182861,
        1.4155139923095703,
        1
      ],
      "type": "VEC3",
      "bufferView": 0,
      "byteOffset": 0
    },
    {
      "name": "Beanie_Cylinder.001-Mesh_0_normals",
      "componentType": 5126,
      "count": 304,
      "min": [
        -0.9159023761749268,
        -0.9999947547912598,
        -0.9312029480934143
      ],
      "max": [
        0.9159023761749268,
        0.9906682372093201,
        0.9312029480934143
      ],
      "type": "VEC3",
      "bufferView": 1,
      "byteOffset": 0
    },
    {
      "name": "Beanie_Cylinder.001-Mesh_0_texcoords",
      "componentType": 5126,
      "count": 304,
      "min": [
        0,
        0
      ],
      "max": [
        1,
        0.9900000095367432
      ],
      "type": "VEC2",
      "bufferView": 2,
      "byteOffset": 0
    },
    {
      "name": "Beanie_Cylinder.001-Mesh_0_indices",
      "componentType": 5123,
      "count": 468,
      "min": [
        0
      ],
      "max": [
        303
      ],
      "type": "SCALAR",
      "bufferView": 3,
      "byteOffset": 0
    }
  ],
  "asset": {
    "generator": "obj2gltf",
    "version": "2.0"
  },
  "buffers": [
    {
      "name": "temp",
      "byteLength": 10664,
      "uri": "data:application/octet-stream;base64,"
    }
  ],
  "bufferViews": [
    {
      "name": "bufferView_0",
      "buffer": 0,
      "byteLength": 3648,
      "byteOffset": 0,
      "byteStride": 12,
      "target": 34962
    },
    {
      "name": "bufferView_1",
      "buffer": 0,
      "byteLength": 3648,
      "byteOffset": 3648,
      "byteStride": 12,
      "target": 34962
    },
    {
      "name": "bufferView_2",
      "buffer": 0,
      "byteLength": 2432,
      "byteOffset": 7296,
      "byteStride": 8,
      "target": 34962
    },
    {
      "name": "bufferView_3",
      "buffer": 0,
      "byteLength": 936,
      "byteOffset": 9728,
      "target": 34963
    }
  ],
  "materials": [
    {
      "name": "Beanie_Gray",
      "pbrMetallicRoughness": {
        "baseColorFactor": [
          0.162642,
          0.162642,
          0.162642,
          1
        ],
        "metallicFactor": 0,
        "roughnessFactor": 0.990999996
      },
      "emissiveFactor": [
        0,
        0,
        0
      ],
      "alphaMode": "OPAQUE",
      "doubleSided": false
    }
  ],
  "meshes": [
    {
      "name": "Beanie_Cylinder.001-Mesh",
      "primitives": [
        {
          "attributes": {
            "POSITION": 0,
            "NORMAL": 1,
            "TEXCOORD_0": 2
          },
          "indices": 3,
          "material": 0,
          "mode": 4
        }
      ]
    }
  ],
  "nodes": [
    {
      "name": "Beanie_Cylinder.001",
      "mesh": 0
    }
  ],
  "scene": 0,
  "scenes": [
    {
      "nodes": [
        0
      ]
    }
  ]
}
