{
  "asset": {
    "generator": "Khronos glTF Blender I/O v1.3.48",
    "version": "2.0"
  },
  "scene": 0,
  "scenes": [
    {
      "name": "Scene",
      "nodes": [
        63
      ]
    }
  ],
  "nodes": [
    {
      "name": "Avatar_LeftToeBase",
      "rotation": [
        -0.22324317693710327,
        3.3340035088258446e-7,
        5.523169193111244e-7,
        0.9747627973556519
      ],
      "scale": [
        1,
        0.9999997615814209,
        1
      ],
      "translation": [
        -0.0000042412934817548376,
        14.388937950134277,
        -0.000001966243416973157
      ]
    },
    {
      "children": [
        0
      ],
      "name": "Avatar_LeftFoot",
      "rotation": [
        1.5244064854869066e-7,
        0.8404747843742371,
        0.5418506264686584,
        1.6364656119094434e-7
      ],
      "scale": [
        1,
        1.0000005960464478,
        0.9999999403953552
      ],
      "translation": [
        -2.2304168112441403e-7,
        40.713470458984375,
        -0.000001449837327527348
      ]
    },
    {
      "children": [
        1
      ],
      "name": "Avatar_LeftLeg",
      "rotation": [
        -0.02360440231859684,
        0.000006909805961186066,
        1.892389462909705e-7,
        0.9997214674949646
      ],
      "scale": [
        1,
        1,
        0.9999999403953552
      ],
      "translation": [
        -5.369882316585972e-8,
        44.88998031616211,
        -1.4364778166964243e-7
      ]
    },
    {
      "children": [
        2
      ],
      "name": "Avatar_LeftUpLeg",
      "rotation": [
        0.011227041482925415,
        -0.000007463946531061083,
        -8.38033074046507e-8,
        0.9999369978904724
      ],
      "scale": [
        1,
        0.9999998807907104,
        1
      ],
      "translation": [
        -8.910005569458008,
        6.2700042724609375,
        -1.4233655920570243e-11
      ]
    },
    {
      "name": "Avatar_RightToeBase",
      "rotation": [
        -0.2232431322336197,
        -0.0001593361230334267,
        -0.0006949597736820579,
        0.9747625589370728
      ],
      "scale": [
        0.9999998807907104,
        1,
        0.9999999403953552
      ],
      "translation": [
        0.0000056732269513304345,
        14.388937950134277,
        -0.0000018629770011102664
      ]
    },
    {
      "children": [
        4
      ],
      "name": "Avatar_RightFoot",
      "rotation": [
        4.6410821141762426e-7,
        0.8404747843742371,
        0.5418506264686584,
        -0.0000010653786830516765
      ],
      "scale": [
        1,
        1.0000005960464478,
        0.9999999403953552
      ],
      "translation": [
        7.306330758183321e-7,
        40.713470458984375,
        -0.0000014482247934211046
      ]
    },
    {
      "children": [
        5
      ],
      "name": "Avatar_RightLeg",
      "rotation": [
        -0.02360440231859684,
        0.000006909805961186066,
        1.892389462909705e-7,
        0.9997214674949646
      ],
      "scale": [
        1,
        1,
        0.9999999403953552
      ],
      "translation": [
        8.999754754768219e-7,
        44.88998031616211,
        -1.0047224918707798e-7
      ]
    },
    {
      "children": [
        6
      ],
      "name": "Avatar_RightUpLeg",
      "rotation": [
        0.011227041482925415,
        -0.000007463946531061083,
        -8.38033074046507e-8,
        0.9999369978904724
      ],
      "scale": [
        1,
        0.9999998807907104,
        1
      ],
      "translation": [
        8.910005569458008,
        6.2700042724609375,
        1.4233655920570243e-11
      ]
    },
    {
      "name": "Avatar_LeftHandThumb4",
      "rotation": [
        -3.719047514394447e-9,
        -1.0748736102572654e-11,
        7.366907084360719e-11,
        1
      ],
      "scale": [
        1,
        1.0000001192092896,
        0.9999999403953552
      ],
      "translation": [
        -0.0000279182568192482,
        2.743846893310547,
        -0.0000014081679182709195
      ]
    },
    {
      "children": [
        8
      ],
      "name": "Avatar_LeftHandThumb3",
      "rotation": [
        0.005433152429759502,
        0.000006362441126839258,
        -0.00005946680175838992,
        0.9999852776527405
      ],
      "scale": [
        1,
        0.9999999403953552,
        0.9999997615814209
      ],
      "translation": [
        -0.00001564008380228188,
        2.8859403133392334,
        3.3821876854744914e-7
      ]
    },
    {
      "children": [
        9
      ],
      "name": "Avatar_LeftHandThumb2",
      "rotation": [
        0.03329874575138092,
        -0.0033654249273240566,
        -0.10160969197750092,
        0.9942612648010254
      ],
      "scale": [
        1,
        1,
        1.0000001192092896
      ],
      "translation": [
        0.0000069141387939453125,
        2.664783000946045,
        -0.000005775449608336203
      ]
    },
    {
      "children": [
        10
      ],
      "name": "Avatar_LeftHandThumb1",
      "rotation": [
        -0.08024166524410248,
        -0.05295184999704361,
        0.08498476445674896,
        0.9917333126068115
      ],
      "scale": [
        1,
        1,
        1.0000001192092896
      ],
      "translation": [
        -1.2016040086746216,
        3.6980841159820557,
        -4.870455741882324
      ]
    },
    {
      "name": "Avatar_LeftHandIndex4",
      "rotation": [
        1.8626464814985866e-9,
        2.1316285460934795e-14,
        -1.2505552149377763e-12,
        1
      ],
      "scale": [
        0.9999999403953552,
        1,
        1
      ],
      "translation": [
        -0.0000017970096450881101,
        2.127370834350586,
        4.582424821819586e-7
      ]
    },
    {
      "children": [
        12
      ],
      "name": "Avatar_LeftHandIndex3",
      "rotation": [
        -0.0024985240306705236,
        2.909652607741009e-8,
        0.000007172369350882946,
        0.9999969005584717
      ],
      "scale": [
        0.9999999403953552,
        1,
        1
      ],
      "translation": [
        -0.00004565704148262739,
        3.41513729095459,
        -3.6574456885318796e-7
      ]
    },
    {
      "children": [
        13
      ],
      "name": "Avatar_LeftHandIndex2",
      "rotation": [
        0.0006620067870244384,
        -2.608043558893769e-8,
        -5.060684760138656e-9,
        0.9999998807907104
      ],
      "scale": [
        0.9999999403953552,
        0.9999998807907104,
        0.9999997615814209
      ],
      "translation": [
        -0.000014181629012455232,
        5.183842182159424,
        7.577648375445278e-8
      ]
    },
    {
      "children": [
        14
      ],
      "name": "Avatar_LeftHandIndex1",
      "rotation": [
        0.04822186008095741,
        -0.06226416677236557,
        -0.008147199638187885,
        0.9968608021736145
      ],
      "scale": [
        0.9999999403953552,
        1,
        0.9999999403953552
      ],
      "translation": [
        0.7790199518203735,
        9.2347412109375,
        -2.7574973106384277
      ]
    },
    {
      "name": "Avatar_LeftHandMiddle4",
      "rotation": [
        0.00023509148741140962,
        -8.320082542923046e-7,
        0.10170643031597137,
        0.9948144555091858
      ],
      "scale": [
        1,
        1.0000001192092896,
        0.9999999403953552
      ],
      "translation": [
        0.000014451252354774624,
        2.0056262016296387,
        2.695656746709574e-7
      ]
    },
    {
      "children": [
        16
      ],
      "name": "Avatar_LeftHandMiddle3",
      "rotation": [
        -0.000008582106602261774,
        -9.731948580338212e-10,
        2.1929525795098825e-13,
        1
      ],
      "translation": [
        -3.301647666376084e-8,
        3.8652868270874023,
        4.859998057327175e-7
      ],
      "scale": [
        1,
        1,
        1
      ]
    },
    {
      "children": [
        17
      ],
      "name": "Avatar_LeftHandMiddle2",
      "rotation": [
        0.00000816210922494065,
        -5.313829376518697e-8,
        -2.3280715133466856e-9,
        1
      ],
      "translation": [
        5.0927161510117e-7,
        4.9760870933532715,
        1.2825611861444486e-7
      ],
      "scale": [
        1,
        1,
        1
      ]
    },
    {
      "children": [
        18
      ],
      "name": "Avatar_LeftHandMiddle1",
      "rotation": [
        0.062341541051864624,
        -0.06237339228391647,
        -0.007264164742082357,
        0.9960774779319763
      ],
      "scale": [
        0.9999998211860657,
        0.9999999403953552,
        1
      ],
      "translation": [
        0.7535377740859985,
        8.896574020385742,
        -0.1720876544713974
      ]
    },
    {
      "name": "Avatar_LeftHandRing4",
      "rotation": [
        5.860185225969872e-8,
        5.3568939506476454e-8,
        0.10170602798461914,
        0.9948145151138306
      ],
      "scale": [
        1,
        0.9999999403953552,
        1
      ],
      "translation": [
        -0.000017779619156499393,
        2.120788335800171,
        -2.23606079430283e-7
      ]
    },
    {
      "children": [
        20
      ],
      "name": "Avatar_LeftHandRing3",
      "rotation": [
        1.1242060082850003e-7,
        -8.063408074576728e-8,
        4.3139616702557275e-15,
        1
      ],
      "translation": [
        -0.000015389774489449337,
        3.263542413711548,
        -2.8474514124354755e-7
      ],
      "scale": [
        1,
        1,
        1
      ]
    },
    {
      "children": [
        21
      ],
      "name": "Avatar_LeftHandRing2",
      "rotation": [
        -2.0354684795998568e-17,
        1.3909060569972098e-8,
        -4.656587337947826e-10,
        1
      ],
      "translation": [
        -0.000015269037248799577,
        4.086479187011719,
        -3.283116996044555e-7
      ],
      "scale": [
        1,
        1,
        1
      ]
    },
    {
      "children": [
        22
      ],
      "name": "Avatar_LeftHandRing1",
      "rotation": [
        0.062371835112571716,
        -0.06237360090017319,
        -0.007262269034981728,
        0.9960756897926331
      ],
      "scale": [
        1,
        1,
        0.9999999403953552
      ],
      "translation": [
        0.2775143086910248,
        8.825660705566406,
        2.6631150245666504
      ]
    },
    {
      "name": "Avatar_LeftHandPinky4",
      "rotation": [
        -0.06747761368751526,
        0.0019535422325134277,
        0.10167299211025238,
        0.9925248622894287
      ],
      "scale": [
        1,
        1,
        0.9999999403953552
      ],
      "translation": [
        -0.000024214881705120206,
        1.7794535160064697,
        -0.000001261843408428831
      ]
    },
    {
      "children": [
        24
      ],
      "name": "Avatar_LeftHandPinky3",
      "rotation": [
        0.001115013612434268,
        -3.979865326186882e-8,
        -0.000008575286301493179,
        0.9999994039535522
      ],
      "scale": [
        1,
        0.9999999403953552,
        0.9999999403953552
      ],
      "translation": [
        2.4017575128709723e-7,
        2.4257397651672363,
        6.302583699380193e-8
      ]
    },
    {
      "children": [
        25
      ],
      "name": "Avatar_LeftHandPinky2",
      "rotation": [
        -0.0005176789709366858,
        2.8879696856165538e-8,
        -1.6693219251351366e-8,
        0.9999998807907104
      ],
      "translation": [
        -0.000012077779501851182,
        3.4953460693359375,
        -0.0000012715511275018798
      ],
      "scale": [
        1,
        1,
        1
      ]
    },
    {
      "children": [
        26
      ],
      "name": "Avatar_LeftHandPinky1",
      "rotation": [
        0.07423420995473862,
        -0.06245582550764084,
        -0.006518654525279999,
        0.9952617883682251
      ],
      "scale": [
        0.9999999403953552,
        1.0000001192092896,
        1
      ],
      "translation": [
        -0.6086195111274719,
        8.394242286682129,
        5.136885643005371
      ]
    },
    {
      "children": [
        11,
        15,
        19,
        23,
        27
      ],
      "name": "Avatar_LeftHand",
      "rotation": [
        -0.04428998380899429,
        0.043345771729946136,
        0.0126523831859231,
        0.9979978203773499
      ],
      "scale": [
        0.9999999403953552,
        1,
        1.0000001192092896
      ],
      "translation": [
        -0.0001387493684887886,
        26.717267990112305,
        -0.000009100801435124595
      ]
    },
    {
      "children": [
        28
      ],
      "name": "Avatar_LeftForeArm",
      "rotation": [
        -0.03698157146573067,
        0.03677508234977722,
        -0.005077737849205732,
        0.998626172542572
      ],
      "scale": [
        0.9999997019767761,
        0.9999997019767761,
        0.9999998807907104
      ],
      "translation": [
        0.00007498219929402694,
        27.323795318603516,
        -0.0000014258823739510262
      ]
    },
    {
      "children": [
        29
      ],
      "name": "Avatar_LeftArm",
      "rotation": [
        0.01828400418162346,
        -0.01828761026263237,
        -0.0003344799915794283,
        0.9996654987335205
      ],
      "scale": [
        1.0000001192092896,
        1,
        0.9999999403953552
      ],
      "translation": [
        1.7440340727148396e-8,
        10.707263946533203,
        6.382379069691524e-10
      ]
    },
    {
      "children": [
        30
      ],
      "name": "Avatar_LeftShoulder",
      "rotation": [
        0.7071068286895752,
        0.7071068286895752,
        5.338508657359853e-8,
        -5.338508657359853e-8
      ],
      "scale": [
        1,
        0.9999997019767761,
        1
      ],
      "translation": [
        7.000007629394531,
        11.43145751953125,
        0
      ]
    },
    {
      "name": "Avatar_RightHandThumb4",
      "rotation": [
        7.451436800920419e-9,
        4.23838655144726e-12,
        6.4574116886984e-11,
        1
      ],
      "scale": [
        1.0000001192092896,
        1.000000238418579,
        1.0000001192092896
      ],
      "translation": [
        0.0000032042171369539574,
        2.7438714504241943,
        -0.000002898990942412638
      ]
    },
    {
      "children": [
        32
      ],
      "name": "Avatar_RightHandThumb3",
      "rotation": [
        -0.005433300975710154,
        -0.000006443747224693652,
        -0.00005947603131062351,
        0.9999853372573853
      ],
      "scale": [
        1.0000001192092896,
        1.0000001192092896,
        0.9999998807907104
      ],
      "translation": [
        -0.000027222065909882076,
        2.8859336376190186,
        -0.0000026273014555044938
      ]
    },
    {
      "children": [
        33
      ],
      "name": "Avatar_RightHandThumb2",
      "rotation": [
        -0.033298786729574203,
        0.0033656107261776924,
        -0.101609967648983,
        0.9942612051963806
      ],
      "scale": [
        1.0000001192092896,
        1.0000001192092896,
        1.0000001192092896
      ],
      "translation": [
        0.000047150075261015445,
        2.6647531986236572,
        0.0000046016202759346925
      ]
    },
    {
      "children": [
        34
      ],
      "name": "Avatar_RightHandThumb1",
      "rotation": [
        0.08024188131093979,
        0.05295184999704361,
        0.08498500287532806,
        0.9917333126068115
      ],
      "scale": [
        1.0000001192092896,
        1,
        1
      ],
      "translation": [
        -1.2016186714172363,
        3.698054313659668,
        4.870455741882324
      ]
    },
    {
      "name": "Avatar_RightHandIndex4",
      "rotation": [
        2.2351741790771484e-7,
        9.313219528905847e-9,
        -4.2833268941271097e-13,
        1
      ],
      "scale": [
        1,
        1.0000001192092896,
        1.0000001192092896
      ],
      "translation": [
        -0.00004591516335494816,
        2.1273715496063232,
        7.350430450969725e-7
      ]
    },
    {
      "children": [
        36
      ],
      "name": "Avatar_RightHandIndex3",
      "rotation": [
        0.0024981859605759382,
        5.960445648156565e-8,
        1.1169071917338513e-10,
        0.9999969005584717
      ],
      "translation": [
        0.000015285257177310996,
        3.415152072906494,
        -7.105190888978541e-7
      ],
      "scale": [
        1,
        1,
        1
      ]
    },
    {
      "children": [
        37
      ],
      "name": "Avatar_RightHandIndex2",
      "rotation": [
        -0.0006619890336878598,
        1.1176097380882766e-8,
        -4.4852552227858666e-10,
        0.9999998807907104
      ],
      "scale": [
        1,
        0.9999998807907104,
        0.9999998211860657
      ],
      "translation": [
        -0.000030375729693332687,
        5.183858394622803,
        -8.974546972240205e-7
      ]
    },
    {
      "children": [
        38
      ],
      "name": "Avatar_RightHandIndex1",
      "rotation": [
        -0.04822176322340965,
        0.06226430833339691,
        -0.0081472247838974,
        0.9968608021736145
      ],
      "scale": [
        1,
        1.0000001192092896,
        1
      ],
      "translation": [
        0.7790085673332214,
        9.234736442565918,
        2.7574970722198486
      ]
    },
    {
      "name": "Avatar_RightHandMiddle4",
      "rotation": [
        5.4569643075097485e-12,
        3.1127169086350975e-15,
        -1.6552789853044054e-15,
        1
      ],
      "scale": [
        0.9999999403953552,
        1,
        0.9999999403953552
      ],
      "translation": [
        7.943526725284755e-9,
        2.005622386932373,
        -5.453989615489263e-8
      ]
    },
    {
      "children": [
        40
      ],
      "name": "Avatar_RightHandMiddle3",
      "rotation": [
        0.000008584258466726169,
        -1.187798082114e-9,
        -4.307796795059021e-14,
        1
      ],
      "scale": [
        0.9999999403953552,
        1,
        0.9999999403953552
      ],
      "translation": [
        4.725734914501345e-9,
        3.8652868270874023,
        3.3289044409912094e-8
      ]
    },
    {
      "children": [
        41
      ],
      "name": "Avatar_RightHandMiddle2",
      "rotation": [
        -0.000008227430043916684,
        -1.7407559838034103e-9,
        -2.32829577839766e-9,
        1
      ],
      "scale": [
        0.9999999403953552,
        1,
        0.9999999403953552
      ],
      "translation": [
        3.9812223917579104e-7,
        4.97607946395874,
        -4.412296163991414e-7
      ]
    },
    {
      "children": [
        42
      ],
      "name": "Avatar_RightHandMiddle1",
      "rotation": [
        -0.06234142929315567,
        0.06237350404262543,
        -0.007264182902872562,
        0.9960774779319763
      ],
      "scale": [
        0.9999999403953552,
        1,
        1
      ],
      "translation": [
        0.7535108327865601,
        8.896547317504883,
        0.17209386825561523
      ]
    },
    {
      "name": "Avatar_RightHandRing4",
      "rotation": [
        -1.9673458950819622e-7,
        1.7920662287451705e-8,
        6.194321450084597e-15,
        1
      ],
      "scale": [
        0.9999999403953552,
        1,
        0.9999999403953552
      ],
      "translation": [
        -2.0345225948403822e-8,
        2.1208035945892334,
        1.7715883871005644e-7
      ]
    },
    {
      "children": [
        44
      ],
      "name": "Avatar_RightHandRing3",
      "rotation": [
        -1.1241979791520862e-7,
        -6.789512951854704e-9,
        -6.077572357865695e-15,
        1
      ],
      "scale": [
        0.9999999403953552,
        1,
        0.9999999403953552
      ],
      "translation": [
        -3.0040457155242756e-14,
        3.2635490894317627,
        2.3841515428557614e-7
      ]
    },
    {
      "children": [
        45
      ],
      "name": "Avatar_RightHandRing2",
      "rotation": [
        1.1175873559921001e-8,
        -3.7253125029224066e-9,
        7.4505797087454084e-9,
        1
      ],
      "scale": [
        0.9999999403953552,
        1,
        0.9999999403953552
      ],
      "translation": [
        -0.000001253761524822039,
        4.086465358734131,
        3.7200550195848336e-7
      ]
    },
    {
      "children": [
        46
      ],
      "name": "Avatar_RightHandRing1",
      "rotation": [
        -0.062371738255023956,
        0.06237373501062393,
        -0.007262296974658966,
        0.9960756897926331
      ],
      "scale": [
        0.9999999403953552,
        1,
        0.9999999403953552
      ],
      "translation": [
        0.2775174379348755,
        8.82564926147461,
        -2.663111925125122
      ]
    },
    {
      "name": "Avatar_RightHandPinky4",
      "rotation": [
        -2.691525082809676e-7,
        2.9797686096344478e-8,
        9.78550573904613e-13,
        1
      ],
      "translation": [
        -0.000021716474293498322,
        1.7794491052627563,
        -3.2797794347061426e-7
      ],
      "scale": [
        1,
        1,
        1
      ]
    },
    {
      "children": [
        48
      ],
      "name": "Avatar_RightHandPinky3",
      "rotation": [
        -0.0011148604098707438,
        -7.195867368636755e-8,
        -0.000008575188076065388,
        0.9999994039535522
      ],
      "scale": [
        0.9999999403953552,
        0.9999998807907104,
        0.9999998807907104
      ],
      "translation": [
        -0.00003029410981980618,
        2.4257466793060303,
        0.0000011391548468964174
      ]
    },
    {
      "children": [
        49
      ],
      "name": "Avatar_RightHandPinky2",
      "rotation": [
        0.0005177953862585127,
        4.191527125385619e-8,
        1.1205074201825482e-8,
        0.9999998807907104
      ],
      "scale": [
        0.9999999403953552,
        1,
        1
      ],
      "translation": [
        -0.000032368243410019204,
        3.4953317642211914,
        -5.143683665664867e-7
      ]
    },
    {
      "children": [
        50
      ],
      "name": "Avatar_RightHandPinky1",
      "rotation": [
        -0.07423431426286697,
        0.06245581433176994,
        -0.006518682464957237,
        0.9952617883682251
      ],
      "translation": [
        -0.6086464524269104,
        8.394240379333496,
        -5.136873722076416
      ],
      "scale": [
        1,
        1,
        1
      ]
    },
    {
      "children": [
        35,
        39,
        43,
        47,
        51
      ],
      "name": "Avatar_RightHand",
      "rotation": [
        0.04428991302847862,
        -0.04334580525755882,
        0.012652397155761719,
        0.9979978203773499
      ],
      "scale": [
        0.9999998807907104,
        1.0000001192092896,
        1.0000001192092896
      ],
      "translation": [
        -0.0001521115773357451,
        26.717243194580078,
        0.000005051669177191798
      ]
    },
    {
      "children": [
        52
      ],
      "name": "Avatar_RightForeArm",
      "rotation": [
        0.036981526762247086,
        -0.03677525743842125,
        -0.005077730864286423,
        0.9986261129379272
      ],
      "scale": [
        0.9999997019767761,
        0.9999999403953552,
        1
      ],
      "translation": [
        0.00012044538016198203,
        27.323787689208984,
        0.000004209272447042167
      ]
    },
    {
      "children": [
        53
      ],
      "name": "Avatar_RightArm",
      "rotation": [
        -0.018283987417817116,
        0.0182876568287611,
        -0.00033448319300077856,
        0.9996654987335205
      ],
      "scale": [
        1,
        1,
        0.9999999403953552
      ],
      "translation": [
        -0.000015266019545379095,
        10.70726203918457,
        1.5127015728921833e-7
      ]
    },
    {
      "children": [
        54
      ],
      "name": "Avatar_RightShoulder",
      "rotation": [
        0,
        0,
        0.7071068286895752,
        0.7071068286895752
      ],
      "scale": [
        1,
        0.9999999403953552,
        1
      ],
      "translation": [
        -7.000007629394531,
        11.43145751953125,
        0
      ]
    },
    {
      "name": "Avatar_Head",
      "translation": [
        0,
        24.235687255859375,
        0
      ],
      "rotation": [
        0,
        0,
        0,
        1
      ],
      "scale": [
        1,
        1,
        1
      ]
    },
    {
      "children": [
        56
      ],
      "name": "Avatar_Neck",
      "translation": [
        0,
        14.078567504882812,
        0
      ],
      "rotation": [
        0,
        0,
        0,
        1
      ],
      "scale": [
        1,
        1,
        1
      ]
    },
    {
      "children": [
        31,
        55,
        57
      ],
      "name": "Avatar_Spine2",
      "translation": [
        0,
        14.078575134277344,
        0
      ],
      "rotation": [
        0,
        0,
        0,
        1
      ],
      "scale": [
        1,
        1,
        1
      ]
    },
    {
      "children": [
        58
      ],
      "name": "Avatar_Spine1",
      "scale": [
        1,
        0.9999999403953552,
        1
      ],
      "translation": [
        0,
        14.078567504882812,
        0
      ],
      "rotation": [
        0,
        0,
        0,
        1
      ]
    },
    {
      "children": [
        59
      ],
      "name": "Avatar_Spine",
      "rotation": [
        0,
        0,
        1,
        0
      ],
      "translation": [
        0,
        -7.000007629394531,
        0
      ],
      "scale": [
        1,
        1,
        1
      ]
    },
    {
      "children": [
        3,
        7,
        60
      ],
      "name": "Avatar_Hips",
      "rotation": [
        0,
        0.7071068286895752,
        0.7071068286895752,
        0
      ],
      "translation": [
        0,
        0,
        -100
      ],
      "scale": [
        1,
        1,
        1
      ]
    },
    {
      "mesh": 0,
      "name": "Hat_AcornKnitCap",
      "skin": 0
    },
    {
      "children": [
        62,
        61
      ],
      "name": "Armature.076",
      "rotation": [
        0.7071068286895752,
        0,
        0,
        0.7071067094802856
      ],
      "scale": [
        0.009999999776482582,
        0.009999999776482582,
        0.009999999776482582
      ],
      "translation": [
        0,
        0,
        0
      ]
    }
  ],
  "materials": [
    {
      "doubleSided": true,
      "emissiveFactor": [
        0,
        0,
        0
      ],
      "name": "Hair_MAT.006",
      "pbrMetallicRoughness": {
        "baseColorTexture": {
          "index": 0,
          "texCoord": 0
        },
        "metallicFactor": 0,
        "roughnessFactor": 1,
        "baseColorFactor": [
          1,
          1,
          1,
          1
        ]
      },
      "alphaMode": "OPAQUE"
    },
    {
      "doubleSided": true,
      "emissiveFactor": [
        0,
        0,
        0
      ],
      "name": "Acorn-knit_TX",
      "pbrMetallicRoughness": {
        "baseColorTexture": {
          "index": 1,
          "texCoord": 0
        },
        "metallicFactor": 0,
        "roughnessFactor": 1,
        "baseColorFactor": [
          1,
          1,
          1,
          1
        ]
      },
      "alphaMode": "OPAQUE"
    }
  ],
  "meshes": [
    {
      "name": "Cylinder.002",
      "primitives": [
        {
          "attributes": {
            "POSITION": 0,
            "NORMAL": 1,
            "TEXCOORD_0": 2,
            "TEXCOORD_1": 3,
            "JOINTS_0": 4,
            "WEIGHTS_0": 5
          },
          "indices": 6,
          "material": 0,
          "mode": 4
        },
        {
          "attributes": {
            "POSITION": 7,
            "NORMAL": 8,
            "TEXCOORD_0": 9,
            "TEXCOORD_1": 10,
            "JOINTS_0": 11,
            "WEIGHTS_0": 12
          },
          "indices": 13,
          "material": 1,
          "mode": 4
        }
      ]
    }
  ],
  "textures": [
    {
      "source": 0
    },
    {
      "source": 1
    }
  ],
  "images": [
    {
      "bufferView": 15,
      "mimeType": "image/png",
      "name": "AvatarWearables_TX_2"
    },
    {
      "bufferView": 16,
      "mimeType": "image/png",
      "name": "Acorn_TX"
    }
  ],
  "skins": [
    {
      "inverseBindMatrices": 14,
      "joints": [
        61,
        3,
        2,
        1,
        0,
        7,
        6,
        5,
        4,
        60,
        59,
        58,
        31,
        30,
        29,
        28,
        11,
        10,
        9,
        8,
        15,
        14,
        13,
        12,
        19,
        18,
        17,
        16,
        23,
        22,
        21,
        20,
        27,
        26,
        25,
        24,
        55,
        54,
        53,
        52,
        35,
        34,
        33,
        32,
        39,
        38,
        37,
        36,
        43,
        42,
        41,
        40,
        47,
        46,
        45,
        44,
        51,
        50,
        49,
        48,
        57,
        56
      ],
      "name": "Armature.076"
    }
  ],
  "accessors": [
    {
      "bufferView": 0,
      "componentType": 5126,
      "count": 215,
      "max": [
        0.12355154007673264,
        1.8586820363998413,
        0.18790636956691742
      ],
      "min": [
        -0.14682035148143768,
        1.603080153465271,
        -0.12364877760410309
      ],
      "type": "VEC3",
      "byteOffset": 0
    },
    {
      "bufferView": 1,
      "componentType": 5126,
      "count": 215,
      "type": "VEC3",
      "byteOffset": 0
    },
    {
      "bufferView": 2,
      "componentType": 5126,
      "count": 215,
      "type": "VEC2",
      "byteOffset": 0
    },
    {
      "bufferView": 3,
      "componentType": 5126,
      "count": 215,
      "type": "VEC2",
      "byteOffset": 0
    },
    {
      "bufferView": 4,
      "componentType": 5123,
      "count": 215,
      "type": "VEC4",
      "byteOffset": 0
    },
    {
      "bufferView": 5,
      "componentType": 5126,
      "count": 215,
      "type": "VEC4",
      "byteOffset": 0
    },
    {
      "bufferView": 6,
      "componentType": 5123,
      "count": 1209,
      "type": "SCALAR",
      "byteOffset": 0
    },
    {
      "bufferView": 7,
      "componentType": 5126,
      "count": 270,
      "max": [
        0.16590631008148193,
        2.0239999294281006,
        0.19019894301891327
      ],
      "min": [
        -0.16650812327861786,
        1.7084907293319702,
        -0.14142803847789764
      ],
      "type": "VEC3",
      "byteOffset": 0
    },
    {
      "bufferView": 8,
      "componentType": 5126,
      "count": 270,
      "type": "VEC3",
      "byteOffset": 0
    },
    {
      "bufferView": 9,
      "componentType": 5126,
      "count": 270,
      "type": "VEC2",
      "byteOffset": 0
    },
    {
      "bufferView": 10,
      "componentType": 5126,
      "count": 270,
      "type": "VEC2",
      "byteOffset": 0
    },
    {
      "bufferView": 11,
      "componentType": 5123,
      "count": 270,
      "type": "VEC4",
      "byteOffset": 0
    },
    {
      "bufferView": 12,
      "componentType": 5126,
      "count": 270,
      "type": "VEC4",
      "byteOffset": 0
    },
    {
      "bufferView": 13,
      "componentType": 5123,
      "count": 1140,
      "type": "SCALAR",
      "byteOffset": 0
    },
    {
      "bufferView": 14,
      "componentType": 5126,
      "count": 62,
      "type": "MAT4",
      "byteOffset": 0
    }
  ],
  "bufferViews": [
    {
      "buffer": 0,
      "byteLength": 2580,
      "byteOffset": 0,
      "byteStride": 12,
      "target": 34962
    },
    {
      "buffer": 0,
      "byteLength": 2580,
      "byteOffset": 2584,
      "byteStride": 12,
      "target": 34962
    },
    {
      "buffer": 0,
      "byteLength": 1720,
      "byteOffset": 5168,
      "byteStride": 8,
      "target": 34962
    },
    {
      "buffer": 0,
      "byteLength": 1720,
      "byteOffset": 6888,
      "byteStride": 8,
      "target": 34962
    },
    {
      "buffer": 0,
      "byteLength": 1720,
      "byteOffset": 8608,
      "byteStride": 8,
      "target": 34962
    },
    {
      "buffer": 0,
      "byteLength": 3440,
      "byteOffset": 10328,
      "byteStride": 16,
      "target": 34962
    },
    {
      "buffer": 0,
      "byteLength": 2418,
      "byteOffset": 13768,
      "target": 34963
    },
    {
      "buffer": 0,
      "byteLength": 3240,
      "byteOffset": 16192,
      "byteStride": 12,
      "target": 34962
    },
    {
      "buffer": 0,
      "byteLength": 3240,
      "byteOffset": 19432,
      "byteStride": 12,
      "target": 34962
    },
    {
      "buffer": 0,
      "byteLength": 2160,
      "byteOffset": 22672,
      "byteStride": 8,
      "target": 34962
    },
    {
      "buffer": 0,
      "byteLength": 2160,
      "byteOffset": 24832,
      "byteStride": 8,
      "target": 34962
    },
    {
      "buffer": 0,
      "byteLength": 2160,
      "byteOffset": 26992,
      "byteStride": 8,
      "target": 34962
    },
    {
      "buffer": 0,
      "byteLength": 4320,
      "byteOffset": 29152,
      "byteStride": 16,
      "target": 34962
    },
    {
      "buffer": 0,
      "byteLength": 2280,
      "byteOffset": 33472,
      "target": 34963
    },
    {
      "buffer": 0,
      "byteLength": 3968,
      "byteOffset": 35752
    },
    {
      "buffer": 0,
      "byteOffset": 39720,
      "byteLength": 8491
    },
    {
      "buffer": 0,
      "byteOffset": 48216,
      "byteLength": 188960
    }
  ],
  "buffers": [
    {
      "name": "tempBeanie",
      "byteLength": 237176,
      "uri": "data:application/octet-stream;base64,"
    }
  ]
}
